<svg xmlns="http://www.w3.org/2000/svg" viewBox="0 0 40 40"><path d="M31 12.71a10.32 10.32 0 0 0-14.57 0l-.21.21a7.71 7.71 0 0 0-1.44-.13 8.65 8.65 0 0 0-6.18 2.59 8.74 8.74 0 0 0 6.14 14.92h9.16A10.27 10.27 0 0 0 31 12.71Zm-16.23 15.7A6.62 6.62 0 0 1 10 26.3a6.84 6.84 0 0 1 4.82-11.66c.26 0 .7 0 1 .08s.71.13 1.07.24a7.14 7.14 0 0 1 1.81.91c.24.21.47.36.74.63l.21.2 2.79 2.8a1 1 0 0 1 0 1.36.9.9 0 0 1-.65.29.83.83 0 0 1-.66-.29l-2.3-2.3-.7-.71a4.93 4.93 0 0 0-2.31-1.11 5.87 5.87 0 0 0-1-.08 4.92 4.92 0 0 0-3.34 8.4 4.83 4.83 0 0 0 3.5 1.44h.86l.83.78c.44.4.86.77 1.32 1.12Zm14.87-2.48a8.24 8.24 0 0 1-3.05 1.94c-.37.12-.7.2-1.07.33a7.31 7.31 0 0 1-1.69.21h-.16a8.21 8.21 0 0 1-5.32-1.9L13.77 22a1 1 0 0 1 0-1.36.85.85 0 0 1 .65-.29.81.81 0 0 1 .66.29L19 24.56a8.35 8.35 0 0 0 1.2 1 6.29 6.29 0 0 0 3.37.94 6.52 6.52 0 0 0 1.61-.21 5.31 5.31 0 0 0 .95-.33 6.91 6.91 0 0 0 2.06-1.4 6.5 6.5 0 0 0 0-9.15 6.46 6.46 0 0 0-8.2-.79 8.68 8.68 0 0 0-1.77-1.07 8.48 8.48 0 0 1 11.33.5 8.41 8.41 0 0 1 .1 11.93" data-name="Adobe CC"/></svg>