<?xml version="1.0" encoding="utf-8"?>
<!-- Generator: Adobe Illustrator 27.0.1, SVG Export Plug-In . SVG Version: 6.00 Build 0)  -->
<svg version="1.1"
	 id="Capa_1" image-rendering="optimizeQuality" text-rendering="geometricPrecision" shape-rendering="geometricPrecision"
	 xmlns="http://www.w3.org/2000/svg" xmlns:xlink="http://www.w3.org/1999/xlink" x="0px" y="0px" viewBox="0 0 666.7 666.7"
	 style="enable-background:new 0 0 666.7 666.7;" xml:space="preserve">
<style type="text/css">
	.st0{fill-rule:evenodd;clip-rule:evenodd;fill:url(#SVGID_1_);}
</style>
<linearGradient id="SVGID_1_" gradientUnits="userSpaceOnUse" x1="41.3478" y1="333.3335" x2="625.3192" y2="333.3335">
	<stop  offset="0" style="stop-color:#2D71FA"/>
	<stop  offset="1" style="stop-color:#4DEFA7"/>
</linearGradient>
<path class="st0" d="M41.3,43.4h584v580h-584V43.4z M286.4,475.6c1.9,1.2,12.6,8.4,14.1,10.2c-47.2,1.8-86.7,4.6-126.3-21.4
	c-24.9-16.3-51.5-49.8-55-92.6C112.6,290.6,181.8,221.5,266,236c46.5,8,66,34.3,88.6,56.4c6.3,6.1,11.9,11.9,18.1,18.1
	c4.7,4.7,13.8,11.2,14.4,22c0.6,10.8-6.8,19-14.8,21.5c-13,3.9-20.3-4.1-25.4-9.2c-12.4-12.4-24-24-36.1-36.2
	c-11.3-11.3-22.6-23.2-43.6-28.8C200,261.9,147.9,323.8,164,382c10.7,38.5,43.7,61.2,83.2,61.3c7.6,0,7.7,2.9,11.9,6.9
	c3.2,3.1,5.6,5.7,8.8,8.8L286.4,475.6z M538.7,385.1c-2.7,13.1-17.6,35.7-24.2,43.8c-33.9,41-85.2,64.6-143.9,54.9
	c-57.4-9.4-85.3-44.9-121.3-81c-7.2-7.2-30.3-28-32.6-36.6c-4.5-5.9,1.4-27.6,20.4-27.4c11.7,0.2,20.7,12.2,30.1,21.7l51.8,51.7
	c16.8,15.8,39.5,29.7,72.2,31.1c89.2,3.6,147.8-96.5,93.7-174.2c-27.6-39.5-81.3-56.5-128.9-38.3c-6.6,2.5-12.2,6.3-17.8,8.4
	c-3.3-1.7-6-4.1-9.2-6.2c-14.3-9.4-15.9-8.8-30.4-15.9c2-6.6,32.9-22.1,38-24.4c48.6-21.2,108.2-12.4,147.1,16
	c38.3,28,63.9,71.3,64.3,122.8C548,344.7,544.3,377.7,538.7,385.1z M94,384c4,39.3,32.3,80.1,63.5,101.3
	c44.9,30.5,75.7,27.2,137.6,27.2h82.5c67.5,0,102.7-11.9,149-57.1l16.8-21.1c1.6-1.8,0.6-0.8,2-1.8c0.5-2.9,5.2-9.5,7.3-13.3
	c8.1-14.7,13.4-29.2,17.3-45.9c10.8-45.4,1.9-96.6-23-135.4c-48.8-76.2-147.5-107.4-231.9-64.7c-13.5,6.8-40,24.4-47.7,35.5
	c-6.7,0.2-14.7-1.2-22-1.2c-65.2-0.3-122,39.9-144.1,99.6C93.5,328.5,89.2,358.8,94,384z"/>
</svg>
