<?xml version="1.0" encoding="utf-8"?>
<!-- Generator: Adobe Illustrator 27.0.1, SVG Export Plug-In . SVG Version: 6.00 Build 0)  -->
<svg version="1.1" id="Capa_1" xmlns="http://www.w3.org/2000/svg" xmlns:xlink="http://www.w3.org/1999/xlink" x="0px" y="0px"
	 viewBox="0 0 32 24" style="enable-background:new 0 0 32 24;" xml:space="preserve">
<style type="text/css">
	.st0{fill:url(#SVGID_1_);}
</style>
<linearGradient id="SVGID_1_" gradientUnits="userSpaceOnUse" x1="-1.002051e-03" y1="11.9995" x2="31.984" y2="11.9995">
	<stop  offset="0" style="stop-color:#2D71FA"/>
	<stop  offset="1" style="stop-color:#4DEFA7"/>
</linearGradient>
<path class="st0" d="M27.5,13.8c0,0,0.1,0,0.1,0c0.8,0,1.6,0.2,2.3,0.5l0,0c0.6,0.3,1.2,0.8,1.5,1.3l0,0c0.3,0.4,0.5,1,0.5,1.6
	c0,0,0,0.1,0,0.1v0c0,0.6-0.3,1.1-0.7,1.4l0,0c-0.2,0.2-0.5,0.4-0.8,0.5l0,0c-0.2,0-0.3,0-0.3-0.1s0.1-0.2,0.2-0.3
	c0.5-0.3,0.8-0.7,0.9-1.2l0,0c0,0,0-0.1,0-0.1c0-0.3-0.1-0.6-0.2-0.9l0,0c-0.2-0.5-0.5-0.8-0.9-1.1l0,0c-0.6-0.4-1.3-0.6-2.1-0.7
	l0,0c-0.3,0-0.6-0.1-0.9-0.1c-0.8,0-1.6,0.2-2.3,0.4l0,0c0.1,0.3,0.2,0.7,0.2,1.1v0c0,0.8-0.5,1.6-1.1,2l0,0c-0.3,0.2-0.7,0.4-1,0.6
	l0,0c-0.2,0.1-0.5,0.2-0.8,0.2c0,0-0.1,0-0.1,0h0c-0.6-0.1-0.8-0.7-0.5-1.6c0.1-0.4,0.3-0.8,0.6-1.1l0,0c0.3-0.4,0.7-0.8,1.1-1.1
	l0,0l-0.1-0.1c-0.2-0.3-0.4-0.7-0.5-1.1l0,0c-0.1-0.3-0.2-0.6-0.2-0.9l0-0.4L22,13.6c-0.4,0.8-0.9,1.5-1.2,2.1L20.6,16
	c0.2,0.4,0.3,0.9,0.3,1.4l0,0c0,0,0,0.1,0,0.2c0,0.8-0.4,1.4-0.9,1.8l0,0c-0.3,0.2-0.6,0.3-0.9,0.5l-0.1,0c-0.4,0.2-0.8,0.3-1.2,0.3
	h0c0,0-0.1,0-0.1,0c-0.2,0-0.5-0.1-0.7-0.2l0,0c-0.1-0.1-0.2-0.3-0.2-0.4c0-0.1,0-0.2,0.1-0.3l0,0c0.4-0.6,0.8-1,1.2-1.5l0,0
	l1.1-1.4L18.9,16c-0.2-0.3-0.3-0.6-0.4-1l0,0c-0.1-0.3-0.2-0.6-0.2-0.9l0-0.4l-0.5,1.2c-0.4,0.9-0.8,1.7-1.1,2.4
	c-0.5,1-0.9,1.8-1.2,2.3l-0.1,0.1c-0.4,0.6-0.8,0.9-1.1,0.9s-0.6-0.2-0.7-0.7c-0.1-0.3-0.2-0.7-0.2-1.1c0,0,0-0.1,0-0.1v0l0.1-0.7v0
	c-0.3,0.6-0.5,1.2-0.8,1.7c-0.2,0.3-0.4,0.6-0.6,0.9l0,0c-0.2,0.2-0.5,0.4-0.8,0.4c0,0,0,0,0,0c0,0,0,0-0.1,0
	c-0.3,0-0.5-0.1-0.7-0.3l0,0C10,20.4,9.8,20,9.6,19.5l0,0c-0.2-0.5-0.3-1-0.3-1.5c0-0.1,0-0.1,0-0.2v0c0.1-0.8,0.2-1.5,0.5-2.2
	l0,0.1l-1.8,1v0c0.3,0.5,0.4,1.2,0.4,1.9c0,0.1,0,0.2,0,0.4l0,0c-0.1,1-0.4,2-0.9,2.8l0,0c-0.6,0.9-1.4,1.6-2.3,2l0,0
	C4.7,23.9,4,24,3.4,24c-0.4,0-0.8-0.1-1.2-0.2l0,0c-0.3-0.1-0.6-0.3-0.7-0.6l0,0C1.2,22.9,1.1,22.5,1,22v0c0-0.1,0-0.2,0-0.3
	c0-0.5,0.1-1,0.3-1.4l0,0c0.6-1,1.4-1.8,2.3-2.3l0,0c0.7-0.5,1.4-0.9,2.2-1.3l0.1,0l0.2-0.1c-0.3-0.2-0.8-0.6-1.7-1.2
	c-1.1-0.7-2-1.4-2.9-2.2l0,0c-0.8-0.7-1.5-1.7-1.7-2.8l0,0C0,10,0,9.9,0,9.7c0-0.6,0.1-1.1,0.4-1.6l0,0c0.6-1.2,1.3-2.2,2.3-3l0,0
	c1-1,2.2-1.8,3.5-2.5l0.1,0c1.1-0.7,2.5-1.3,3.8-1.7l0.2-0.1C11.5,0.3,13,0,14.5,0h0c0.1,0,0.2,0,0.2,0c1.2,0,2.4,0.3,3.5,0.8l0,0
	C19.1,1.2,19.8,2,20,2.9l0,0c0.1,0.3,0.1,0.7,0.1,1.1c0,0.6-0.1,1.2-0.4,1.8l0,0c-0.4,1-1,1.9-1.8,2.6l0,0c-0.8,0.8-1.7,1.4-2.7,1.8
	l-0.1,0c-1.1,0.5-2.3,0.8-3.6,0.8l0,0c-0.2,0-0.4,0-0.6,0c-0.6,0-1.2-0.1-1.7-0.2l0,0c-0.5-0.2-0.9-0.4-1.3-0.7l0,0
	C7.8,9.9,7.6,9.6,7.4,9.4l0,0c-0.1-0.3-0.1-0.4,0-0.5s0.1-0.1,0.2,0l0.2,0.2c0.3,0.3,0.6,0.5,1,0.6l0,0C9.3,9.9,9.9,10,10.5,10
	c0.2,0,0.4,0,0.6,0l0,0c1.6-0.2,3.1-0.7,4.3-1.6l0,0c1.1-0.6,1.9-1.5,2.5-2.5l0,0c0.3-0.4,0.5-1,0.5-1.6c0-0.4-0.1-0.7-0.2-1l0,0
	c-0.4-0.6-1-1-1.7-1.1l0,0C16,2,15.4,1.9,14.7,1.9c-0.5,0-1,0-1.5,0.1l0.1,0C11.5,2.4,10,2.9,8.6,3.6l0.1,0C4.6,5.6,2.5,7.7,2.4,9.9
	v0c0,0.9,0.3,1.7,0.9,2.3l0,0c0.6,0.7,1.3,1.3,2.1,1.9l0,0c0.7,0.5,1.3,1.1,1.9,1.6l0,0l0.1,0.1l3.2-1.7c0.4-0.5,0.8-1,1.3-1.3l0,0
	c0.4-0.3,0.9-0.6,1.5-0.6l0,0c0,0,0,0,0.1,0c0.4,0,0.7,0.2,0.8,0.5l0,0c0.1,0.2,0.2,0.5,0.2,0.8c0,0.1,0,0.2,0,0.3l0,0l-0.1,0.5
	l0.1-0.1c0.1-0.1,0.2-0.1,0.4-0.1c0.1,0,0.2,0,0.3,0.1l0,0c0.2,0.1,0.3,0.2,0.3,0.4c0,0,0,0.1,0,0.1l0,0l-0.1,0.6
	c-0.3,1.2-0.5,2.1-0.6,2.6c-0.1,0.2-0.1,0.4-0.1,0.6c0,0,0,0.1,0,0.1v0c0,0.2,0,0.3,0.1,0.3c0,0,0.1-0.1,0.2-0.3l0.1-0.4
	c0,0,0,0,0,0l0.6-1.1c1.3-2.9,2-4.5,2.1-4.8l0.3-0.9c0-0.1,0.2-0.1,0.4-0.2c0.2-0.1,0.5-0.1,0.8-0.1c0,0,0,0,0.1,0h0
	c0.5,0,0.7,0.1,0.7,0.4l0,0.2c-0.1,0.3-0.2,0.7-0.3,1.1l0,0.1c0,0.1,0,0.3,0,0.4c0,0.2,0,0.4,0.1,0.6l0,0l0,0.2
	c0.1,0.4,0.3,0.8,0.5,1.1l0,0c0.4-0.7,0.8-1.3,1.1-2c0.3-0.5,0.6-1,0.8-1.6l0-0.1c0.1-0.4,0.2-0.7,0.3-1l0,0.1
	c0-0.1,0.2-0.2,0.4-0.2c0.2,0,0.5-0.1,0.8-0.1h0h0c0.5,0,0.7,0.1,0.7,0.4l-0.1,0.2c-0.1,0.3-0.2,0.7-0.3,1.2l0,0c0,0.1,0,0.2,0,0.3
	c0,0.2,0,0.5,0.1,0.7l0,0v0.2c0.1,0.4,0.3,0.8,0.5,1.2l0,0l0.1,0.4C25.5,14,26.5,13.8,27.5,13.8L27.5,13.8L27.5,13.8L27.5,13.8z
	 M6.1,21c0.7-0.7,1.1-1.7,1.1-2.8c0-0.4-0.1-0.8-0.2-1.2l0,0l-0.8,0.5c-0.8,0.5-1.5,1-2.2,1.6l0,0c-0.5,0.4-0.8,1-1,1.7l0,0
	c-0.1,0.6-0.1,1,0.2,1.2c0.2,0.1,0.4,0.1,0.6,0.1c0.2,0,0.5-0.1,0.7-0.2l0,0C5.2,21.8,5.7,21.5,6.1,21L6.1,21L6.1,21z M12.8,16.4
	c0.2-0.4,0.4-0.9,0.6-1.6c0.3-0.8,0.4-1.3,0.3-1.4c-0.1-0.1-0.2-0.1-0.5-0.1c-0.3,0.1-0.5,0.3-0.7,0.5l0,0c-0.2,0.3-0.4,0.6-0.6,0.9
	l0,0c-0.2,0.3-0.4,0.7-0.5,1.1l0,0c-0.2,0.5-0.3,1.1-0.3,1.8c0,0.1,0,0.2,0,0.3v0c0,0.7,0.1,1,0.3,1.1s0.4-0.2,0.6-0.7
	c0.2-0.4,0.4-0.9,0.6-1.4l0-0.1C12.7,16.7,12.8,16.5,12.8,16.4L12.8,16.4z M18.3,19.1c0.7-0.3,1.2-1,1.2-1.7l0,0v0L19,18l-1,1.1
	c0,0,0,0,0,0c0,0,0,0,0,0C18.1,19.2,18.2,19.2,18.3,19.1L18.3,19.1z M22.6,18.1c0.8-0.2,1.3-0.9,1.3-1.7c0,0,0,0,0,0v0
	c0-0.2,0-0.4-0.1-0.6l0,0c-0.4,0.3-0.7,0.8-0.9,1.2l0,0C22.6,17.7,22.5,18,22.6,18.1L22.6,18.1z"/>
</svg>
