<?xml version="1.0" encoding="UTF-8"?><svg id="Capa_1" xmlns="http://www.w3.org/2000/svg" xmlns:xlink="http://www.w3.org/1999/xlink" viewBox="0 0 730.38 114.98"><defs><style>.cls-1{fill:url(#Degradado_sin_nombre_23);}</style><linearGradient id="Degradado_sin_nombre_23" x1="0" y1="57.49" x2="730.38" y2="57.49" gradientUnits="userSpaceOnUse"><stop offset="0" stop-color="#42047e"/><stop offset=".5" stop-color="#2a30a5"/><stop offset="1" stop-color="#0045b5"/></linearGradient></defs><path class="cls-1" d="M52.57,73.94H26.02l-4.13,12.48H0L27.4,11.85h24.01l27.29,74.57h-22l-4.13-12.48Zm-5.18-15.66l-8.04-24.33-8.14,24.33h16.18ZM105.67,8.15V86.42h-20.84V8.15h20.84Zm68.01,52.36h-39.24c.35,6.7,3.28,10.05,8.78,10.05,2.04,0,3.74-.49,5.08-1.48,1.34-.99,2.26-2.29,2.75-3.91h22c-.78,4.16-2.5,7.92-5.18,11.27-2.68,3.35-6.07,5.98-10.15,7.88-4.09,1.9-8.57,2.86-13.43,2.86-5.92,0-11.16-1.22-15.71-3.65s-8.09-5.96-10.63-10.58c-2.54-4.62-3.81-10.03-3.81-16.24s1.27-11.6,3.81-16.18c2.54-4.58,6.1-8.09,10.68-10.52,4.58-2.43,9.8-3.65,15.66-3.65s11.14,1.2,15.65,3.6c4.51,2.4,8.02,5.82,10.52,10.26,2.5,4.44,3.75,9.59,3.75,15.44,0,1.48-.18,3.1-.53,4.87Zm-23.06-15.55c-1.69-1.55-3.81-2.33-6.35-2.33-2.75,0-4.99,.78-6.72,2.33-1.73,1.55-2.73,3.84-3.01,6.88h18.51c.07-3.03-.74-5.32-2.43-6.88Zm70.02,41.46l-11.11-15.13-8.57,15.13h-22.95l19.78-31.1-20.63-28.24h23.27l11,15.02,8.67-15.02h22.95l-20.42,30.36,21.26,28.98h-23.27ZM251.64,3.01c2.26-2.01,5.22-3.01,8.89-3.01s6.59,1,8.78,3.01c2.18,2.01,3.28,4.57,3.28,7.67s-1.11,5.43-3.33,7.4c-2.22,1.98-5.13,2.96-8.73,2.96s-6.63-.99-8.89-2.96c-2.26-1.97-3.38-4.44-3.38-7.4s1.13-5.66,3.38-7.67Zm19.15,24.06v59.34h-20.84V27.08h20.84Zm52.78,4.97c4.65,3.81,7.58,8.85,8.78,15.13h-19.46c-.49-2.12-1.5-3.7-3.01-4.76-1.52-1.06-3.37-1.59-5.55-1.59-1.55,0-2.73,.34-3.54,1-.81,.67-1.22,1.6-1.22,2.8,0,1.48,.86,2.59,2.59,3.33,1.73,.74,4.57,1.57,8.52,2.49,4.58,.99,8.37,2.05,11.37,3.17,3,1.13,5.61,2.96,7.83,5.5,2.22,2.54,3.33,5.96,3.33,10.26,0,3.46-.95,6.52-2.86,9.2-1.9,2.68-4.67,4.78-8.3,6.29-3.63,1.52-7.92,2.27-12.85,2.27-8.32,0-14.95-1.8-19.89-5.39-4.94-3.6-7.93-8.74-8.99-15.44h19.99c.28,2.19,1.22,3.81,2.8,4.87s3.58,1.59,5.98,1.59c1.62,0,2.86-.35,3.7-1.06,.85-.7,1.27-1.62,1.27-2.75,0-1.69-.9-2.93-2.7-3.7-1.8-.78-4.67-1.55-8.62-2.33-4.51-.92-8.22-1.92-11.11-3.01-2.89-1.09-5.41-2.86-7.56-5.29-2.15-2.43-3.23-5.8-3.23-10.1,0-5.36,2.08-9.73,6.24-13.12,4.16-3.38,10.08-5.08,17.77-5.08s14.07,1.9,18.72,5.71Zm97.74-19.15V86.42h-12.17V31.31l-21.26,55.11h-10.58l-21.37-55.11v55.11h-12.06V12.9h14.6l24.33,58.71,23.91-58.71h14.6Zm51.41,18.41c3.74,2.61,6.38,6.07,7.93,10.37v-13.54h12.06v58.28h-12.06v-13.54c-1.55,4.3-4.2,7.76-7.93,10.37-3.74,2.61-8.25,3.91-13.54,3.91s-9.61-1.2-13.59-3.6c-3.98-2.4-7.11-5.85-9.36-10.37-2.26-4.51-3.38-9.84-3.38-15.97s1.13-11.35,3.38-15.87c2.26-4.51,5.38-7.97,9.36-10.37,3.98-2.4,8.51-3.6,13.59-3.6s9.8,1.31,13.54,3.91Zm-22.69,11.79c-3.21,3.42-4.81,8.13-4.81,14.12s1.6,10.7,4.81,14.12c3.21,3.42,7.49,5.13,12.85,5.13,3.38,0,6.42-.79,9.1-2.38,2.68-1.59,4.79-3.82,6.35-6.72,1.55-2.89,2.33-6.28,2.33-10.15s-.78-7.18-2.33-10.1c-1.55-2.93-3.67-5.18-6.35-6.77-2.68-1.59-5.71-2.38-9.1-2.38-5.36,0-9.64,1.71-12.85,5.13Zm94.09-11.79c3.74,2.61,6.38,6.07,7.93,10.37v-13.54h12.06v58.92c0,5.43-1.11,10.24-3.33,14.44-2.22,4.19-5.41,7.49-9.57,9.89-4.16,2.4-9.1,3.6-14.81,3.6-8.18,0-14.79-1.94-19.83-5.82-5.04-3.88-8.2-9.13-9.47-15.76h11.95c.99,3.45,2.89,6.15,5.71,8.09,2.82,1.94,6.42,2.91,10.79,2.91,4.79,0,8.74-1.48,11.85-4.44,3.1-2.96,4.65-7.26,4.65-12.9v-14.17c-1.55,4.3-4.2,7.76-7.93,10.37-3.74,2.61-8.25,3.91-13.54,3.91s-9.61-1.2-13.59-3.6c-3.98-2.4-7.11-5.85-9.36-10.37-2.26-4.51-3.38-9.84-3.38-15.97s1.13-11.35,3.38-15.87c2.26-4.51,5.38-7.97,9.36-10.37,3.98-2.4,8.51-3.6,13.59-3.6s9.8,1.31,13.54,3.91Zm-22.69,11.79c-3.21,3.42-4.81,8.13-4.81,14.12s1.6,10.7,4.81,14.12c3.21,3.42,7.49,5.13,12.85,5.13,3.38,0,6.42-.79,9.1-2.38,2.68-1.59,4.79-3.82,6.35-6.72,1.55-2.89,2.33-6.28,2.33-10.15s-.78-7.18-2.33-10.1c-1.55-2.93-3.67-5.18-6.35-6.77-2.68-1.59-5.71-2.38-9.1-2.38-5.36,0-9.64,1.71-12.85,5.13Zm77.69-12.59c3.67-2.22,7.9-3.33,12.69-3.33v13.12h-3.6c-5.29,0-9.54,1.29-12.75,3.86-3.21,2.58-4.81,6.82-4.81,12.75v29.51h-12.06V28.14h12.06v11.42c1.97-3.81,4.79-6.82,8.46-9.04Zm22.11-24.38c1.41-1.34,3.28-2.01,5.61-2.01s4.21,.67,5.66,2.01c1.44,1.34,2.17,3.03,2.17,5.08s-.72,3.7-2.17,4.97c-1.45,1.27-3.33,1.9-5.66,1.9s-4.2-.63-5.61-1.9c-1.41-1.27-2.12-2.93-2.12-4.97s.7-3.74,2.12-5.08Zm11.64,22v58.28h-12.06V28.14h12.06Zm63.47,5.61c4.09,4.37,6.13,10.61,6.13,18.72v33.96h-12.06V53.73c0-5.22-1.34-9.26-4.02-12.11-2.68-2.86-6.35-4.28-11-4.28s-8.64,1.53-11.53,4.6c-2.89,3.07-4.34,7.56-4.34,13.49v30.99h-12.06V28.14h12.06v12.8c1.55-4.37,4.16-7.76,7.83-10.15,3.67-2.4,7.9-3.6,12.69-3.6,6.77,0,12.2,2.19,16.29,6.56Zm20.63-27.61c1.41-1.34,3.28-2.01,5.61-2.01s4.21,.67,5.66,2.01c1.44,1.34,2.17,3.03,2.17,5.08s-.72,3.7-2.17,4.97c-1.45,1.27-3.33,1.9-5.66,1.9s-4.2-.63-5.61-1.9c-1.41-1.27-2.12-2.93-2.12-4.97s.7-3.74,2.12-5.08Zm11.64,22v58.28h-12.06V28.14h12.06Z"/></svg>